<mxfile host="65bd71144e" scale="10" border="0">
    <diagram id="Jf5RHwIwj3P055EiEldz" name="第 1 页">
        <mxGraphModel dx="801" dy="453" grid="1" gridSize="10" guides="1" tooltips="1" connect="1" arrows="1" fold="1" page="1" pageScale="1" pageWidth="1169" pageHeight="1654" math="0" shadow="0">
            <root>
                <mxCell id="0"/>
                <mxCell id="1" parent="0"/>
                <mxCell id="2010" style="edgeStyle=none;html=1;entryX=0.5;entryY=0;entryDx=0;entryDy=0;fontFamily=Times New Roman;fontSize=18;" parent="1" source="2004" target="2006" edge="1">
                    <mxGeometry relative="1" as="geometry">
                        <Array as="points">
                            <mxPoint x="680" y="580"/>
                            <mxPoint x="680" y="610"/>
                            <mxPoint x="530" y="610"/>
                        </Array>
                    </mxGeometry>
                </mxCell>
                <mxCell id="2058" style="edgeStyle=none;html=1;entryX=0.5;entryY=0;entryDx=0;entryDy=0;fontFamily=Times New Roman;fontSource=https%3A%2F%2Ffonts.googleapis.com%2Fcss%3Ffamily%3D%25E5%25AE%258B%25E4%25BD%2593;fontSize=18;" parent="1" source="2004" target="2035" edge="1">
                    <mxGeometry relative="1" as="geometry">
                        <Array as="points">
                            <mxPoint x="680" y="610"/>
                            <mxPoint x="830" y="610"/>
                        </Array>
                    </mxGeometry>
                </mxCell>
                <mxCell id="2004" value="&lt;font data-font-src=&quot;https://fonts.googleapis.com/css?family=%E5%AE%8B%E4%BD%93&quot;&gt;卷积层&lt;/font&gt;&lt;span style=&quot;font-family: &amp;#34;times new roman&amp;#34;&quot;&gt;1&lt;/span&gt;" style="rounded=0;whiteSpace=wrap;html=1;fontFamily=宋体;fontSource=https%3A%2F%2Ffonts.googleapis.com%2Fcss%3Ffamily%3D%25E5%25AE%258B%25E4%25BD%2593;fontSize=18;fillColor=#FFFFFF;" parent="1" vertex="1">
                    <mxGeometry x="630" y="520" width="100" height="40" as="geometry"/>
                </mxCell>
                <mxCell id="2006" value="池化层&lt;span style=&quot;font-family: &amp;#34;times new roman&amp;#34;&quot;&gt;1&lt;/span&gt;" style="rounded=0;whiteSpace=wrap;html=1;fontFamily=宋体;fontSource=https%3A%2F%2Ffonts.googleapis.com%2Fcss%3Ffamily%3D%25E5%25AE%258B%25E4%25BD%2593;fontSize=18;fillColor=#FFFFFF;" parent="1" vertex="1">
                    <mxGeometry x="480" y="630" width="100" height="40" as="geometry"/>
                </mxCell>
                <mxCell id="2007" value="&lt;font data-font-src=&quot;https://fonts.googleapis.com/css?family=%E5%AE%8B%E4%BD%93&quot;&gt;&lt;font face=&quot;Times New Roman&quot;&gt;4*4&lt;/font&gt;卷积核&lt;font face=&quot;Times New Roman&quot;&gt;1a&lt;/font&gt;&lt;br&gt;&lt;/font&gt;" style="rounded=0;whiteSpace=wrap;html=1;fontFamily=宋体;fontSource=https%3A%2F%2Ffonts.googleapis.com%2Fcss%3Ffamily%3D%25E5%25AE%258B%25E4%25BD%2593;fontSize=18;fillColor=#FFFFFF;" parent="1" vertex="1">
                    <mxGeometry x="560" y="560" width="110" height="30" as="geometry"/>
                </mxCell>
                <mxCell id="2008" value="" style="endArrow=classic;html=1;fontFamily=宋体;fontSource=https%3A%2F%2Ffonts.googleapis.com%2Fcss%3Ffamily%3D%25E5%25AE%258B%25E4%25BD%2593;fontSize=18;entryX=0.5;entryY=0;entryDx=0;entryDy=0;" parent="1" target="2004" edge="1">
                    <mxGeometry width="50" height="50" relative="1" as="geometry">
                        <mxPoint x="680" y="480" as="sourcePoint"/>
                        <mxPoint x="750" y="520" as="targetPoint"/>
                    </mxGeometry>
                </mxCell>
                <mxCell id="2009" value="&lt;span style=&quot;font-family: &amp;#34;times new roman&amp;#34;&quot;&gt;29*29&lt;/span&gt;" style="text;html=1;align=center;verticalAlign=middle;resizable=0;points=[];autosize=1;strokeColor=none;fillColor=none;fontSize=18;fontFamily=宋体;" parent="1" vertex="1">
                    <mxGeometry x="680" y="490" width="60" height="30" as="geometry"/>
                </mxCell>
                <mxCell id="2011" value="&lt;span style=&quot;font-family: &amp;#34;times new roman&amp;#34;&quot;&gt;26*26&lt;/span&gt;" style="text;html=1;align=center;verticalAlign=middle;resizable=0;points=[];autosize=1;strokeColor=none;fillColor=none;fontSize=18;fontFamily=宋体;" parent="1" vertex="1">
                    <mxGeometry x="470" y="600" width="60" height="30" as="geometry"/>
                </mxCell>
                <mxCell id="2012" style="edgeStyle=none;html=1;entryX=0.5;entryY=0;entryDx=0;entryDy=0;fontFamily=Times New Roman;fontSize=18;" parent="1" source="2013" target="2014" edge="1">
                    <mxGeometry relative="1" as="geometry">
                        <Array as="points">
                            <mxPoint x="530" y="810"/>
                            <mxPoint x="460" y="810"/>
                        </Array>
                    </mxGeometry>
                </mxCell>
                <mxCell id="2021" style="edgeStyle=none;html=1;entryX=0.5;entryY=0;entryDx=0;entryDy=0;fontFamily=Times New Roman;fontSize=18;" parent="1" source="2013" target="2020" edge="1">
                    <mxGeometry relative="1" as="geometry">
                        <Array as="points">
                            <mxPoint x="530" y="810"/>
                            <mxPoint x="600" y="810"/>
                        </Array>
                    </mxGeometry>
                </mxCell>
                <mxCell id="2013" value="&lt;font data-font-src=&quot;https://fonts.googleapis.com/css?family=%E5%AE%8B%E4%BD%93&quot;&gt;卷积层&lt;/font&gt;&lt;span style=&quot;font-family: &amp;#34;times new roman&amp;#34;&quot;&gt;2&lt;/span&gt;" style="rounded=0;whiteSpace=wrap;html=1;fontFamily=宋体;fontSource=https%3A%2F%2Ffonts.googleapis.com%2Fcss%3Ffamily%3D%25E5%25AE%258B%25E4%25BD%2593;fontSize=18;fillColor=#FFFFFF;" parent="1" vertex="1">
                    <mxGeometry x="480" y="720" width="100" height="40" as="geometry"/>
                </mxCell>
                <mxCell id="2063" style="edgeStyle=none;html=1;entryX=0.042;entryY=0;entryDx=0;entryDy=0;entryPerimeter=0;fontFamily=Times New Roman;fontSource=https%3A%2F%2Ffonts.googleapis.com%2Fcss%3Ffamily%3D%25E5%25AE%258B%25E4%25BD%2593;fontSize=18;" parent="1" source="2014" target="2023" edge="1">
                    <mxGeometry relative="1" as="geometry"/>
                </mxCell>
                <mxCell id="2014" value="池化层&lt;span style=&quot;font-family: &amp;#34;times new roman&amp;#34;&quot;&gt;2&lt;/span&gt;" style="rounded=0;whiteSpace=wrap;html=1;fontFamily=宋体;fontSource=https%3A%2F%2Ffonts.googleapis.com%2Fcss%3Ffamily%3D%25E5%25AE%258B%25E4%25BD%2593;fontSize=18;fillColor=#FFFFFF;" parent="1" vertex="1">
                    <mxGeometry x="410" y="830" width="100" height="40" as="geometry"/>
                </mxCell>
                <mxCell id="2015" value="&lt;font data-font-src=&quot;https://fonts.googleapis.com/css?family=%E5%AE%8B%E4%BD%93&quot;&gt;&lt;span style=&quot;font-family: &amp;#34;times new roman&amp;#34;&quot;&gt;4*4&lt;/span&gt;卷积核&lt;font face=&quot;Times New Roman&quot;&gt;2b&lt;/font&gt;&lt;br&gt;&lt;/font&gt;" style="rounded=0;whiteSpace=wrap;html=1;fontFamily=宋体;fontSource=https%3A%2F%2Ffonts.googleapis.com%2Fcss%3Ffamily%3D%25E5%25AE%258B%25E4%25BD%2593;fontSize=18;fillColor=#FFFFFF;" parent="1" vertex="1">
                    <mxGeometry x="540" y="760" width="110" height="30" as="geometry"/>
                </mxCell>
                <mxCell id="2016" value="" style="endArrow=classic;html=1;fontFamily=宋体;fontSource=https%3A%2F%2Ffonts.googleapis.com%2Fcss%3Ffamily%3D%25E5%25AE%258B%25E4%25BD%2593;fontSize=18;entryX=0.5;entryY=0;entryDx=0;entryDy=0;exitX=0.5;exitY=1;exitDx=0;exitDy=0;" parent="1" source="2006" target="2013" edge="1">
                    <mxGeometry width="50" height="50" relative="1" as="geometry">
                        <mxPoint x="530" y="690" as="sourcePoint"/>
                        <mxPoint x="600" y="730" as="targetPoint"/>
                    </mxGeometry>
                </mxCell>
                <mxCell id="2017" value="&lt;span style=&quot;font-family: &amp;#34;times new roman&amp;#34;&quot;&gt;13*13&lt;/span&gt;" style="text;html=1;align=center;verticalAlign=middle;resizable=0;points=[];autosize=1;strokeColor=none;fillColor=none;fontSize=18;fontFamily=宋体;" parent="1" vertex="1">
                    <mxGeometry x="470" y="690" width="60" height="30" as="geometry"/>
                </mxCell>
                <mxCell id="2018" value="&lt;span style=&quot;font-family: &amp;#34;times new roman&amp;#34;&quot;&gt;10*10&lt;/span&gt;" style="text;html=1;align=center;verticalAlign=middle;resizable=0;points=[];autosize=1;strokeColor=none;fillColor=none;fontSize=18;fontFamily=宋体;" parent="1" vertex="1">
                    <mxGeometry x="400" y="800" width="60" height="30" as="geometry"/>
                </mxCell>
                <mxCell id="2019" value="&lt;font data-font-src=&quot;https://fonts.googleapis.com/css?family=%E5%AE%8B%E4%BD%93&quot;&gt;&lt;font face=&quot;Times New Roman&quot;&gt;4*4&lt;/font&gt;卷积核&lt;font face=&quot;Times New Roman&quot;&gt;2a&lt;/font&gt;&lt;br&gt;&lt;/font&gt;" style="rounded=0;whiteSpace=wrap;html=1;fontFamily=宋体;fontSource=https%3A%2F%2Ffonts.googleapis.com%2Fcss%3Ffamily%3D%25E5%25AE%258B%25E4%25BD%2593;fontSize=18;fillColor=#FFFFFF;" parent="1" vertex="1">
                    <mxGeometry x="410" y="760" width="110" height="30" as="geometry"/>
                </mxCell>
                <mxCell id="2064" style="edgeStyle=none;html=1;entryX=0.335;entryY=-0.01;entryDx=0;entryDy=0;entryPerimeter=0;fontFamily=Times New Roman;fontSource=https%3A%2F%2Ffonts.googleapis.com%2Fcss%3Ffamily%3D%25E5%25AE%258B%25E4%25BD%2593;fontSize=18;" parent="1" source="2020" target="2023" edge="1">
                    <mxGeometry relative="1" as="geometry"/>
                </mxCell>
                <mxCell id="2020" value="池化层&lt;span style=&quot;font-family: &amp;#34;times new roman&amp;#34;&quot;&gt;2&lt;/span&gt;" style="rounded=0;whiteSpace=wrap;html=1;fontFamily=宋体;fontSource=https%3A%2F%2Ffonts.googleapis.com%2Fcss%3Ffamily%3D%25E5%25AE%258B%25E4%25BD%2593;fontSize=18;fillColor=#FFFFFF;" parent="1" vertex="1">
                    <mxGeometry x="550" y="830" width="100" height="40" as="geometry"/>
                </mxCell>
                <mxCell id="2022" value="&lt;span style=&quot;font-family: &amp;#34;times new roman&amp;#34;&quot;&gt;10*10&lt;/span&gt;" style="text;html=1;align=center;verticalAlign=middle;resizable=0;points=[];autosize=1;strokeColor=none;fillColor=none;fontSize=18;fontFamily=宋体;" parent="1" vertex="1">
                    <mxGeometry x="600" y="800" width="60" height="30" as="geometry"/>
                </mxCell>
                <mxCell id="2023" value="全连接层+&lt;span style=&quot;font-family: &amp;#34;times new roman&amp;#34;&quot;&gt;Softmax&lt;/span&gt;" style="rounded=0;whiteSpace=wrap;html=1;fontFamily=宋体;fontSource=https%3A%2F%2Ffonts.googleapis.com%2Fcss%3Ffamily%3D%25E5%25AE%258B%25E4%25BD%2593;fontSize=18;fillColor=#FFFFFF;" parent="1" vertex="1">
                    <mxGeometry x="440" y="910" width="480" height="40" as="geometry"/>
                </mxCell>
                <mxCell id="2026" value="&lt;span style=&quot;font-family: &amp;#34;times new roman&amp;#34;&quot;&gt;5*5&lt;/span&gt;" style="text;html=1;align=center;verticalAlign=middle;resizable=0;points=[];autosize=1;strokeColor=none;fillColor=none;fontSize=18;fontFamily=宋体;" parent="1" vertex="1">
                    <mxGeometry x="410" y="880" width="40" height="30" as="geometry"/>
                </mxCell>
                <mxCell id="2027" value="&lt;span style=&quot;font-family: &amp;#34;times new roman&amp;#34;&quot;&gt;5*5&lt;/span&gt;" style="text;html=1;align=center;verticalAlign=middle;resizable=0;points=[];autosize=1;strokeColor=none;fillColor=none;fontSize=18;fontFamily=宋体;" parent="1" vertex="1">
                    <mxGeometry x="610" y="880" width="40" height="30" as="geometry"/>
                </mxCell>
                <mxCell id="2067" style="edgeStyle=none;html=1;entryX=0.5;entryY=0;entryDx=0;entryDy=0;fontFamily=宋体;fontSource=https%3A%2F%2Ffonts.googleapis.com%2Fcss%3Ffamily%3D%25E5%25AE%258B%25E4%25BD%2593;fontSize=18;" parent="1" target="2066" edge="1">
                    <mxGeometry relative="1" as="geometry">
                        <mxPoint x="680" y="950" as="sourcePoint"/>
                    </mxGeometry>
                </mxCell>
                <mxCell id="2032" value="&lt;span style=&quot;font-family: &amp;#34;times new roman&amp;#34;&quot;&gt;8*1&lt;/span&gt;" style="text;html=1;align=center;verticalAlign=middle;resizable=0;points=[];autosize=1;strokeColor=none;fillColor=none;fontSize=18;fontFamily=宋体;" parent="1" vertex="1">
                    <mxGeometry x="630" y="950" width="40" height="30" as="geometry"/>
                </mxCell>
                <mxCell id="2035" value="池化层&lt;span style=&quot;font-family: &amp;#34;times new roman&amp;#34;&quot;&gt;1&lt;/span&gt;" style="rounded=0;whiteSpace=wrap;html=1;fontFamily=宋体;fontSource=https%3A%2F%2Ffonts.googleapis.com%2Fcss%3Ffamily%3D%25E5%25AE%258B%25E4%25BD%2593;fontSize=18;fillColor=#FFFFFF;" parent="1" vertex="1">
                    <mxGeometry x="780" y="630" width="100" height="40" as="geometry"/>
                </mxCell>
                <mxCell id="2036" style="edgeStyle=none;html=1;entryX=0.5;entryY=0;entryDx=0;entryDy=0;fontFamily=Times New Roman;fontSize=18;" parent="1" source="2038" target="2040" edge="1">
                    <mxGeometry relative="1" as="geometry">
                        <Array as="points">
                            <mxPoint x="830" y="810"/>
                            <mxPoint x="760" y="810"/>
                        </Array>
                    </mxGeometry>
                </mxCell>
                <mxCell id="2037" style="edgeStyle=none;html=1;entryX=0.5;entryY=0;entryDx=0;entryDy=0;fontFamily=Times New Roman;fontSize=18;" parent="1" source="2038" target="2047" edge="1">
                    <mxGeometry relative="1" as="geometry">
                        <Array as="points">
                            <mxPoint x="830" y="810"/>
                            <mxPoint x="900" y="810"/>
                        </Array>
                    </mxGeometry>
                </mxCell>
                <mxCell id="2038" value="&lt;font data-font-src=&quot;https://fonts.googleapis.com/css?family=%E5%AE%8B%E4%BD%93&quot;&gt;卷积层&lt;/font&gt;&lt;span style=&quot;font-family: &amp;#34;times new roman&amp;#34;&quot;&gt;2&lt;/span&gt;" style="rounded=0;whiteSpace=wrap;html=1;fontFamily=宋体;fontSource=https%3A%2F%2Ffonts.googleapis.com%2Fcss%3Ffamily%3D%25E5%25AE%258B%25E4%25BD%2593;fontSize=18;fillColor=#FFFFFF;" parent="1" vertex="1">
                    <mxGeometry x="780" y="720" width="100" height="40" as="geometry"/>
                </mxCell>
                <mxCell id="2039" style="edgeStyle=none;html=1;entryX=0.109;entryY=0.032;entryDx=0;entryDy=0;entryPerimeter=0;fontFamily=Times New Roman;fontSize=18;" parent="1" source="2040" edge="1">
                    <mxGeometry relative="1" as="geometry">
                        <mxPoint x="759.6199999999999" y="911.28" as="targetPoint"/>
                    </mxGeometry>
                </mxCell>
                <mxCell id="2040" value="池化层&lt;span style=&quot;font-family: &amp;#34;times new roman&amp;#34;&quot;&gt;2&lt;/span&gt;" style="rounded=0;whiteSpace=wrap;html=1;fontFamily=宋体;fontSource=https%3A%2F%2Ffonts.googleapis.com%2Fcss%3Ffamily%3D%25E5%25AE%258B%25E4%25BD%2593;fontSize=18;fillColor=#FFFFFF;" parent="1" vertex="1">
                    <mxGeometry x="710" y="830" width="100" height="40" as="geometry"/>
                </mxCell>
                <mxCell id="2041" value="&lt;font data-font-src=&quot;https://fonts.googleapis.com/css?family=%E5%AE%8B%E4%BD%93&quot;&gt;&lt;span style=&quot;font-family: &amp;#34;times new roman&amp;#34;&quot;&gt;4*4&lt;/span&gt;卷积核&lt;font face=&quot;Times New Roman&quot;&gt;2b&lt;/font&gt;&lt;br&gt;&lt;/font&gt;" style="rounded=0;whiteSpace=wrap;html=1;fontFamily=宋体;fontSource=https%3A%2F%2Ffonts.googleapis.com%2Fcss%3Ffamily%3D%25E5%25AE%258B%25E4%25BD%2593;fontSize=18;fillColor=#FFFFFF;" parent="1" vertex="1">
                    <mxGeometry x="840" y="760" width="110" height="30" as="geometry"/>
                </mxCell>
                <mxCell id="2042" value="" style="endArrow=classic;html=1;fontFamily=宋体;fontSource=https%3A%2F%2Ffonts.googleapis.com%2Fcss%3Ffamily%3D%25E5%25AE%258B%25E4%25BD%2593;fontSize=18;entryX=0.5;entryY=0;entryDx=0;entryDy=0;exitX=0.5;exitY=1;exitDx=0;exitDy=0;" parent="1" source="2035" target="2038" edge="1">
                    <mxGeometry width="50" height="50" relative="1" as="geometry">
                        <mxPoint x="830" y="690" as="sourcePoint"/>
                        <mxPoint x="900" y="730" as="targetPoint"/>
                    </mxGeometry>
                </mxCell>
                <mxCell id="2043" value="&lt;span style=&quot;font-family: &amp;#34;times new roman&amp;#34;&quot;&gt;13*13&lt;/span&gt;" style="text;html=1;align=center;verticalAlign=middle;resizable=0;points=[];autosize=1;strokeColor=none;fillColor=none;fontSize=18;fontFamily=宋体;" parent="1" vertex="1">
                    <mxGeometry x="830" y="690" width="60" height="30" as="geometry"/>
                </mxCell>
                <mxCell id="2044" value="&lt;span style=&quot;font-family: &amp;#34;times new roman&amp;#34;&quot;&gt;10*10&lt;/span&gt;" style="text;html=1;align=center;verticalAlign=middle;resizable=0;points=[];autosize=1;strokeColor=none;fillColor=none;fontSize=18;fontFamily=宋体;" parent="1" vertex="1">
                    <mxGeometry x="700" y="800" width="60" height="30" as="geometry"/>
                </mxCell>
                <mxCell id="2045" value="&lt;font data-font-src=&quot;https://fonts.googleapis.com/css?family=%E5%AE%8B%E4%BD%93&quot;&gt;&lt;span style=&quot;font-family: &amp;#34;times new roman&amp;#34;&quot;&gt;4*4&lt;/span&gt;卷积核&lt;font face=&quot;Times New Roman&quot;&gt;2a&lt;/font&gt;&lt;br&gt;&lt;/font&gt;" style="rounded=0;whiteSpace=wrap;html=1;fontFamily=宋体;fontSource=https%3A%2F%2Ffonts.googleapis.com%2Fcss%3Ffamily%3D%25E5%25AE%258B%25E4%25BD%2593;fontSize=18;fillColor=#FFFFFF;" parent="1" vertex="1">
                    <mxGeometry x="710" y="760" width="110" height="30" as="geometry"/>
                </mxCell>
                <mxCell id="2046" style="edgeStyle=none;html=1;entryX=0.889;entryY=-0.016;entryDx=0;entryDy=0;entryPerimeter=0;fontFamily=Times New Roman;fontSize=18;" parent="1" source="2047" edge="1">
                    <mxGeometry relative="1" as="geometry">
                        <mxPoint x="900.02" y="909.3599999999999" as="targetPoint"/>
                    </mxGeometry>
                </mxCell>
                <mxCell id="2047" value="池化层&lt;span style=&quot;font-family: &amp;#34;times new roman&amp;#34;&quot;&gt;2&lt;/span&gt;" style="rounded=0;whiteSpace=wrap;html=1;fontFamily=宋体;fontSource=https%3A%2F%2Ffonts.googleapis.com%2Fcss%3Ffamily%3D%25E5%25AE%258B%25E4%25BD%2593;fontSize=18;fillColor=#FFFFFF;" parent="1" vertex="1">
                    <mxGeometry x="850" y="830" width="100" height="40" as="geometry"/>
                </mxCell>
                <mxCell id="2048" value="&lt;span style=&quot;font-family: &amp;#34;times new roman&amp;#34;&quot;&gt;10*10&lt;/span&gt;" style="text;html=1;align=center;verticalAlign=middle;resizable=0;points=[];autosize=1;strokeColor=none;fillColor=none;fontSize=18;fontFamily=宋体;" parent="1" vertex="1">
                    <mxGeometry x="900" y="800" width="60" height="30" as="geometry"/>
                </mxCell>
                <mxCell id="2051" value="&lt;span style=&quot;font-family: &amp;#34;times new roman&amp;#34;&quot;&gt;5*5&lt;/span&gt;" style="text;html=1;align=center;verticalAlign=middle;resizable=0;points=[];autosize=1;strokeColor=none;fillColor=none;fontSize=18;fontFamily=宋体;" parent="1" vertex="1">
                    <mxGeometry x="710" y="880" width="40" height="30" as="geometry"/>
                </mxCell>
                <mxCell id="2052" value="&lt;span style=&quot;font-family: &amp;#34;times new roman&amp;#34;&quot;&gt;5*5&lt;/span&gt;" style="text;html=1;align=center;verticalAlign=middle;resizable=0;points=[];autosize=1;strokeColor=none;fillColor=none;fontSize=18;fontFamily=宋体;" parent="1" vertex="1">
                    <mxGeometry x="910" y="880" width="40" height="30" as="geometry"/>
                </mxCell>
                <mxCell id="2057" value="&lt;font data-font-src=&quot;https://fonts.googleapis.com/css?family=%E5%AE%8B%E4%BD%93&quot;&gt;&lt;font face=&quot;Times New Roman&quot;&gt;4*4&lt;/font&gt;卷积核&lt;font face=&quot;Times New Roman&quot;&gt;1b&lt;/font&gt;&lt;br&gt;&lt;/font&gt;" style="rounded=0;whiteSpace=wrap;html=1;fontFamily=宋体;fontSource=https%3A%2F%2Ffonts.googleapis.com%2Fcss%3Ffamily%3D%25E5%25AE%258B%25E4%25BD%2593;fontSize=18;fillColor=#FFFFFF;" parent="1" vertex="1">
                    <mxGeometry x="690" y="560" width="110" height="30" as="geometry"/>
                </mxCell>
                <mxCell id="2059" value="&lt;span style=&quot;font-family: &amp;#34;times new roman&amp;#34;&quot;&gt;26*26&lt;/span&gt;" style="text;html=1;align=center;verticalAlign=middle;resizable=0;points=[];autosize=1;strokeColor=none;fillColor=none;fontSize=18;fontFamily=宋体;" parent="1" vertex="1">
                    <mxGeometry x="830" y="600" width="60" height="30" as="geometry"/>
                </mxCell>
                <mxCell id="2066" value="确定最大概率物体" style="rounded=0;whiteSpace=wrap;html=1;fontFamily=宋体;fontSource=https%3A%2F%2Ffonts.googleapis.com%2Fcss%3Ffamily%3D%25E5%25AE%258B%25E4%25BD%2593;fontSize=18;fillColor=#FFFFFF;" parent="1" vertex="1">
                    <mxGeometry x="590" y="990" width="180" height="40" as="geometry"/>
                </mxCell>
            </root>
        </mxGraphModel>
    </diagram>
</mxfile>